<svg width="24" height="24" viewBox="0 0 24 24" fill="none" xmlns="http://www.w3.org/2000/svg">
<path d="M1 6.00001H23C23.2652 6.00001 23.5196 5.89465 23.7071 5.70712C23.8946 5.51958 24 5.26523 24 5.00001C24 4.7348 23.8946 4.48044 23.7071 4.29291C23.5196 4.10537 23.2652 4.00002 23 4.00002H1C0.734784 4.00002 0.48043 4.10537 0.292893 4.29291C0.105357 4.48044 0 4.7348 0 5.00001C0 5.26523 0.105357 5.51958 0.292893 5.70712C0.48043 5.89465 0.734784 6.00001 1 6.00001V6.00001Z" fill="white"/>
<path d="M23 9H1C0.734784 9 0.48043 9.10536 0.292893 9.29289C0.105357 9.48043 0 9.73478 0 10C0 10.2652 0.105357 10.5196 0.292893 10.7071C0.48043 10.8946 0.734784 11 1 11H23C23.2652 11 23.5196 10.8946 23.7071 10.7071C23.8946 10.5196 24 10.2652 24 10C24 9.73478 23.8946 9.48043 23.7071 9.29289C23.5196 9.10536 23.2652 9 23 9Z" fill="white"/>
<path d="M23 19H1C0.734784 19 0.48043 19.1053 0.292893 19.2929C0.105357 19.4804 0 19.7348 0 20C0 20.2652 0.105357 20.5195 0.292893 20.7071C0.48043 20.8946 0.734784 21 1 21H23C23.2652 21 23.5196 20.8946 23.7071 20.7071C23.8946 20.5195 24 20.2652 24 20C24 19.7348 23.8946 19.4804 23.7071 19.2929C23.5196 19.1053 23.2652 19 23 19Z" fill="white"/>
<path d="M23 14H1C0.734784 14 0.48043 14.1054 0.292893 14.2929C0.105357 14.4805 0 14.7348 0 15C0 15.2653 0.105357 15.5196 0.292893 15.7071C0.48043 15.8947 0.734784 16 1 16H23C23.2652 16 23.5196 15.8947 23.7071 15.7071C23.8946 15.5196 24 15.2653 24 15C24 14.7348 23.8946 14.4805 23.7071 14.2929C23.5196 14.1054 23.2652 14 23 14Z" fill="white"/>
</svg>
